<svg width="27" height="28" viewBox="0 0 27 28" fill="none" xmlns="http://www.w3.org/2000/svg">
<path d="M0.824331 27.0153C1.25588 27.4469 1.77373 27.6626 2.3779 27.6626C2.99285 27.6518 3.51071 27.4361 3.93147 27.0153L13.5603 17.3864L23.1892 27.0153C23.61 27.4361 24.1224 27.6464 24.7266 27.6464C25.3308 27.6464 25.8486 27.4307 26.2802 26.9991C26.7117 26.5676 26.9221 26.0551 26.9113 25.4617C26.9113 24.8576 26.7009 24.3451 26.2802 23.9244L16.6513 14.2955L26.2964 4.65042C26.7063 4.24045 26.9113 3.73338 26.9113 3.12922C26.9221 2.51426 26.7117 1.99101 26.2802 1.55947C25.8486 1.12792 25.3254 0.91754 24.7104 0.92833C24.1063 0.928331 23.5992 1.13331 23.1892 1.54328L13.5442 11.1883L3.91528 1.55947C3.50531 1.1495 2.99285 0.939119 2.3779 0.92833C1.77373 0.906753 1.25588 1.11174 0.824331 1.54328C0.392785 1.97483 0.182405 2.49808 0.193195 3.11303C0.203983 3.72799 0.414362 4.24045 0.824331 4.65042L10.4532 14.2793L0.824331 23.9082C0.403573 24.3289 0.1878 24.8468 0.177012 25.4617C0.177011 26.0659 0.392785 26.5838 0.824331 27.0153Z" fill="#BBB8CA"/>
</svg>
