<svg width="44" height="31" viewBox="0 0 44 31" fill="none" xmlns="http://www.w3.org/2000/svg">
<path d="M8.30553 3.04716C10.6976 1.78806 13.355 0.925998 16.0844 0.845322L16.4477 1.27862C14.0334 1.97207 11.6783 2.8858 9.5062 4.13584C8.60778 4.67882 7.69457 5.22089 6.91631 5.92341C8.87583 4.96345 10.8788 4.04972 13.0056 3.50221C14.1517 3.18494 15.3108 2.89306 16.4967 2.7598C19.337 2.3682 22.2273 2.19507 25.0853 2.50871C27.1269 2.73765 29.1406 3.16364 31.0969 3.7805C32.8084 4.3411 34.47 5.03872 36.065 5.8663C35.6407 5.44479 35.137 5.11302 34.6379 4.78578C32.3447 3.28556 29.7835 2.21682 27.1566 1.41822C27.3932 1.20247 27.5485 0.776429 27.9386 0.843509C31.3862 1.05925 34.7007 2.38271 37.5023 4.33436C37.7029 4.46217 37.9302 4.58454 38.0162 4.81932C39.7539 8.23856 41.0423 11.8717 41.9269 15.5901C42.6589 18.7156 43.0804 21.9146 43.1276 25.1226C43.135 25.2831 43.135 25.4562 43.0194 25.5858C41.1607 28.133 38.2232 29.7837 35.1379 30.4572C34.1041 30.683 33.0504 30.8099 31.9916 30.8362C31.1791 29.8778 30.3795 28.909 29.5931 27.93C30.6976 27.6472 31.743 27.1876 32.744 26.6564C34.0546 25.9031 35.2886 24.9513 36.1556 23.714C34.9133 24.4953 33.6147 25.197 32.231 25.71C31.3475 26.0704 30.4486 26.3931 29.5367 26.6772C27.9718 27.1667 26.3451 27.4314 24.7174 27.62C22.8392 27.8194 20.9407 27.7605 19.0662 27.5511C17.1187 27.3462 15.2119 26.864 13.3541 26.2657C11.8216 25.7191 10.2678 25.1797 8.88414 24.3177C8.53014 24.0983 8.17706 23.8789 7.81196 23.6777C8.35914 24.5062 9.12816 25.1643 9.90457 25.7798C11.1736 26.7271 12.634 27.4124 14.1582 27.862C13.4718 28.7182 12.7736 29.5652 12.0637 30.4029C11.8974 30.5724 11.7892 30.8924 11.4925 30.828C10.0257 30.7709 8.57304 30.5237 7.17234 30.0928C5.24795 29.4402 3.41415 28.4485 1.97131 27.0244C1.4685 26.5358 0.974921 26.0128 0.631082 25.4018C0.595034 20.0781 1.73192 14.7933 3.55464 9.79408C4.20719 8.03188 4.94293 6.29235 5.84135 4.63712C6.58819 4.01256 7.45148 3.52215 8.30553 3.04716ZM14.6499 14.1832C13.3596 14.3256 12.2338 15.2175 11.7273 16.3751C10.9093 18.1074 11.4685 20.3826 13.0925 21.4722C13.9133 22.0279 14.9845 22.2282 15.9495 21.9617C17.0097 21.707 17.8803 20.9166 18.349 19.9657C19.1374 18.3975 18.8222 16.3479 17.5263 15.1287C16.7656 14.4325 15.6907 14.04 14.6499 14.1832ZM27.7121 14.2141C25.9097 14.544 24.6157 16.2917 24.6388 18.0548C24.6166 19.4454 25.3228 20.8595 26.5521 21.5874C27.3673 22.0968 28.4127 22.2056 29.3333 21.9345C30.3565 21.6553 31.1912 20.8758 31.6413 19.9466C32.4593 18.3141 32.0471 16.1512 30.6163 14.9746C30.219 14.6461 29.7528 14.4077 29.2508 14.2762C28.7488 14.1447 28.2234 14.1235 27.7121 14.2141Z" fill="#E7E7E7"/>
</svg>
