<svg width="65" height="65" viewBox="0 0 65 65" fill="none" xmlns="http://www.w3.org/2000/svg">
<g opacity="0.1">
<path d="M62.9762 61.4524H47.7381C46.8965 61.4524 46.2143 62.1346 46.2143 62.9762C46.2143 63.8178 46.8965 64.5 47.7381 64.5H62.9762C63.8178 64.5 64.5 63.8178 64.5 62.9762C64.5 62.1346 63.8178 61.4524 62.9762 61.4524Z" fill="#CFD4D7"/>
<path d="M41.6428 61.4524H23.3571C22.5155 61.4524 21.8333 62.1346 21.8333 62.9762C21.8333 63.8178 22.5155 64.5 23.3571 64.5H41.6428C42.4844 64.5 43.1666 63.8178 43.1666 62.9762C43.1666 62.1346 42.4844 61.4524 41.6428 61.4524Z" fill="#CFD4D7"/>
<path d="M17.2619 61.4524H2.02381C1.18223 61.4524 0.5 62.1346 0.5 62.9762C0.5 63.8178 1.18223 64.5 2.02381 64.5H17.2619C18.1035 64.5 18.7857 63.8178 18.7857 62.9762C18.7857 62.1346 18.1035 61.4524 17.2619 61.4524Z" fill="#EA5E5E"/>
<path d="M62.9761 55.357H50.7857C49.9441 55.357 49.2619 56.0392 49.2619 56.8808C49.2619 57.7224 49.9441 58.4046 50.7857 58.4046H62.9761C63.8177 58.4046 64.5 57.7224 64.5 56.8808C64.5 56.0392 63.8177 55.357 62.9761 55.357Z" fill="#CFD4D7"/>
<path d="M44.6905 55.357H41.6429C40.8013 55.357 40.1191 56.0392 40.1191 56.8808C40.1191 57.7224 40.8013 58.4046 41.6429 58.4046H44.6905C45.5321 58.4046 46.2143 57.7224 46.2143 56.8808C46.2143 56.0392 45.5321 55.357 44.6905 55.357Z" fill="#CFD4D7"/>
<path d="M35.5476 55.357H23.3571C22.5156 55.357 21.8333 56.0392 21.8333 56.8808C21.8333 57.7224 22.5156 58.4046 23.3571 58.4046H35.5476C36.3892 58.4046 37.0714 57.7224 37.0714 56.8808C37.0714 56.0392 36.3892 55.357 35.5476 55.357Z" fill="#CFD4D7"/>
<path d="M17.2619 55.357H14.2143C13.3727 55.357 12.6905 56.0392 12.6905 56.8808C12.6905 57.7224 13.3727 58.4046 14.2143 58.4046H17.2619C18.1035 58.4046 18.7857 57.7224 18.7857 56.8808C18.7857 56.0392 18.1035 55.357 17.2619 55.357Z" fill="#F7B93E"/>
<path d="M8.11905 55.3571H2.02381C1.18223 55.3571 0.5 56.0393 0.5 56.8809C0.5 57.7224 1.18223 58.4047 2.02381 58.4047H8.11905C8.96062 58.4047 9.64286 57.7224 9.64286 56.8809C9.64286 56.0393 8.96062 55.3571 8.11905 55.3571Z" fill="#56B3B4"/>
<path d="M62.9762 49.2618H35.5476C34.706 49.2618 34.0238 49.944 34.0238 50.7856C34.0238 51.6272 34.706 52.3094 35.5476 52.3094H62.9762C63.8177 52.3094 64.5 51.6272 64.5 50.7856C64.5 49.944 63.8177 49.2618 62.9762 49.2618Z" fill="#CFD4D7"/>
<path d="M29.4524 49.2618H23.3571C22.5155 49.2618 21.8333 49.944 21.8333 50.7856C21.8333 51.6272 22.5155 52.3094 23.3571 52.3094H29.4524C30.2939 52.3094 30.9762 51.6272 30.9762 50.7856C30.9762 49.944 30.2939 49.2618 29.4524 49.2618Z" fill="#CFD4D7"/>
<path d="M17.2619 49.2617H2.02381C1.18223 49.2617 0.5 49.944 0.5 50.7855C0.5 51.6271 1.18223 52.3093 2.02381 52.3093H17.2619C18.1035 52.3093 18.7857 51.6271 18.7857 50.7855C18.7857 49.944 18.1035 49.2617 17.2619 49.2617Z" fill="#BF85BF"/>
<path d="M62.9762 43.1666H56.881C56.0394 43.1666 55.3571 43.8488 55.3571 44.6904C55.3571 45.5319 56.0394 46.2142 56.881 46.2142H62.9762C63.8178 46.2142 64.5 45.5319 64.5 44.6904C64.5 43.8488 63.8178 43.1666 62.9762 43.1666Z" fill="#CFD4D7"/>
<path d="M50.7857 43.1666H44.6905C43.8489 43.1666 43.1667 43.8488 43.1667 44.6904C43.1667 45.5319 43.8489 46.2142 44.6905 46.2142H50.7857C51.6273 46.2142 52.3095 45.5319 52.3095 44.6904C52.3095 43.8488 51.6273 43.1666 50.7857 43.1666Z" fill="#CFD4D7"/>
<path d="M38.5952 43.1666H11.1667C10.3251 43.1666 9.64284 43.8488 9.64284 44.6904C9.64284 45.5319 10.3251 46.2142 11.1667 46.2142H38.5952C39.4368 46.2142 40.119 45.5319 40.119 44.6904C40.119 43.8488 39.4368 43.1666 38.5952 43.1666Z" fill="#F7B93E"/>
<path d="M5.07143 43.1665H2.02381C1.18223 43.1665 0.5 43.8488 0.5 44.6903C0.5 45.5319 1.18223 46.2142 2.02381 46.2142H5.07143C5.913 46.2142 6.59524 45.5319 6.59524 44.6903C6.59524 43.8488 5.913 43.1665 5.07143 43.1665Z" fill="#BF85BF"/>
<path d="M62.9762 37.0712H53.8333C52.9917 37.0712 52.3095 37.7534 52.3095 38.595C52.3095 39.4366 52.9917 40.1188 53.8333 40.1188H62.9762C63.8178 40.1188 64.5 39.4366 64.5 38.595C64.5 37.7534 63.8178 37.0712 62.9762 37.0712Z" fill="#CFD4D7"/>
<path d="M47.738 37.0712H38.5952C37.7536 37.0712 37.0714 37.7534 37.0714 38.595C37.0714 39.4366 37.7536 40.1188 38.5952 40.1188H47.738C48.5796 40.1188 49.2619 39.4366 49.2619 38.595C49.2619 37.7534 48.5796 37.0712 47.738 37.0712Z" fill="#BF85BF"/>
<path d="M32.5 37.0712H20.3095C19.468 37.0712 18.7857 37.7534 18.7857 38.595C18.7857 39.4366 19.468 40.1188 20.3095 40.1188H32.5C33.3416 40.1188 34.0238 39.4366 34.0238 38.595C34.0238 37.7534 33.3416 37.0712 32.5 37.0712Z" fill="#EA5E5E"/>
<path d="M14.2143 37.0712H2.02381C1.18223 37.0712 0.5 37.7534 0.5 38.595C0.5 39.4366 1.18223 40.1188 2.02381 40.1188H14.2143C15.0559 40.1188 15.7381 39.4366 15.7381 38.595C15.7381 37.7534 15.0559 37.0712 14.2143 37.0712Z" fill="#56B3B4"/>
<path d="M62.9762 30.9764H56.881C56.0394 30.9764 55.3571 31.6586 55.3571 32.5002C55.3571 33.3418 56.0394 34.024 56.881 34.024H62.9762C63.8178 34.024 64.5 33.3418 64.5 32.5002C64.5 31.6586 63.8178 30.9764 62.9762 30.9764Z" fill="#CFD4D7"/>
<path d="M50.7857 30.9764H26.4047C25.5632 30.9764 24.8809 31.6586 24.8809 32.5002C24.8809 33.3418 25.5632 34.024 26.4047 34.024H50.7857C51.6273 34.024 52.3095 33.3418 52.3095 32.5002C52.3095 31.6586 51.6273 30.9764 50.7857 30.9764Z" fill="#56B3B4"/>
<path d="M20.3095 30.9764H11.1667C10.3251 30.9764 9.64284 31.6586 9.64284 32.5002C9.64284 33.3418 10.3251 34.024 11.1667 34.024H20.3095C21.1511 34.024 21.8333 33.3418 21.8333 32.5002C21.8333 31.6586 21.1511 30.9764 20.3095 30.9764Z" fill="#F7B93E"/>
<path d="M5.07143 30.9763H2.02381C1.18223 30.9763 0.5 31.6586 0.5 32.5001C0.5 33.3417 1.18223 34.024 2.02381 34.024H5.07143C5.913 34.024 6.59524 33.3417 6.59524 32.5001C6.59524 31.6586 5.913 30.9763 5.07143 30.9763Z" fill="#EA5E5E"/>
<path d="M62.9762 24.881H59.9286C59.087 24.881 58.4048 25.5632 58.4048 26.4048C58.4048 27.2464 59.087 27.9286 59.9286 27.9286H62.9762C63.8178 27.9286 64.5 27.2464 64.5 26.4048C64.5 25.5632 63.8178 24.881 62.9762 24.881Z" fill="#CFD4D7"/>
<path d="M53.8333 24.881H38.5952C37.7536 24.881 37.0714 25.5632 37.0714 26.4048C37.0714 27.2464 37.7536 27.9286 38.5952 27.9286H53.8333C54.6749 27.9286 55.3571 27.2464 55.3571 26.4048C55.3571 25.5632 54.6749 24.881 53.8333 24.881Z" fill="#F7B93E"/>
<path d="M32.5 24.881H23.3571C22.5155 24.881 21.8333 25.5632 21.8333 26.4048C21.8333 27.2464 22.5155 27.9286 23.3571 27.9286H32.5C33.3416 27.9286 34.0238 27.2464 34.0238 26.4048C34.0238 25.5632 33.3416 24.881 32.5 24.881Z" fill="#CFD4D7"/>
<path d="M17.2619 24.881H2.02381C1.18223 24.881 0.5 25.5632 0.5 26.4048C0.5 27.2464 1.18223 27.9286 2.02381 27.9286H17.2619C18.1035 27.9286 18.7857 27.2464 18.7857 26.4048C18.7857 25.5632 18.1035 24.881 17.2619 24.881Z" fill="#BF85BF"/>
<path d="M62.9762 18.7856H59.9286C59.087 18.7856 58.4048 19.4679 58.4048 20.3094C58.4048 21.151 59.087 21.8332 59.9286 21.8332H62.9762C63.8178 21.8332 64.5 21.151 64.5 20.3094C64.5 19.4679 63.8178 18.7856 62.9762 18.7856Z" fill="#CFD4D7"/>
<path d="M53.8333 18.7856H38.5952C37.7536 18.7856 37.0714 19.4679 37.0714 20.3094C37.0714 21.151 37.7536 21.8332 38.5952 21.8332H53.8333C54.6749 21.8332 55.3571 21.151 55.3571 20.3094C55.3571 19.4679 54.6749 18.7856 53.8333 18.7856Z" fill="#EA5E5E"/>
<path d="M32.5 18.7856H23.3571C22.5155 18.7856 21.8333 19.4679 21.8333 20.3094C21.8333 21.151 22.5155 21.8332 23.3571 21.8332H32.5C33.3416 21.8332 34.0238 21.151 34.0238 20.3094C34.0238 19.4679 33.3416 18.7856 32.5 18.7856Z" fill="#CFD4D7"/>
<path d="M17.2619 18.7856H14.2143C13.3727 18.7856 12.6905 19.4679 12.6905 20.3094C12.6905 21.151 13.3727 21.8332 14.2143 21.8332H17.2619C18.1035 21.8332 18.7857 21.151 18.7857 20.3094C18.7857 19.4679 18.1035 18.7856 17.2619 18.7856Z" fill="#56B3B4"/>
<path d="M8.11905 18.7857H2.02381C1.18223 18.7857 0.5 19.4679 0.5 20.3095C0.5 21.1511 1.18223 21.8333 2.02381 21.8333H8.11905C8.96062 21.8333 9.64286 21.1511 9.64286 20.3095C9.64286 19.4679 8.96062 18.7857 8.11905 18.7857Z" fill="#F7B93E"/>
<path d="M62.9762 12.6901H56.881C56.0394 12.6901 55.3571 13.3724 55.3571 14.2139C55.3571 15.0555 56.0394 15.7377 56.881 15.7377H62.9762C63.8178 15.7377 64.5 15.0555 64.5 14.2139C64.5 13.3724 63.8178 12.6901 62.9762 12.6901Z" fill="#CFD4D7"/>
<path d="M50.7857 12.6901H47.7381C46.8965 12.6901 46.2143 13.3724 46.2143 14.2139C46.2143 15.0555 46.8965 15.7377 47.7381 15.7377H50.7857C51.6273 15.7377 52.3095 15.0555 52.3095 14.2139C52.3095 13.3724 51.6273 12.6901 50.7857 12.6901Z" fill="#56B3B4"/>
<path d="M41.6428 12.6901H29.4524C28.6108 12.6901 27.9286 13.3724 27.9286 14.2139C27.9286 15.0555 28.6108 15.7377 29.4524 15.7377H41.6428C42.4844 15.7377 43.1667 15.0555 43.1667 14.2139C43.1667 13.3724 42.4844 12.6901 41.6428 12.6901Z" fill="#BF85BF"/>
<path d="M23.3571 12.6902H2.02381C1.18223 12.6902 0.5 13.3724 0.5 14.214C0.5 15.0556 1.18223 15.7378 2.02381 15.7378H23.3571C24.1987 15.7378 24.8809 15.0556 24.8809 14.214C24.8809 13.3724 24.1987 12.6902 23.3571 12.6902Z" fill="#56B3B4"/>
<path d="M62.9762 6.59532H53.8333C52.9917 6.59532 52.3095 7.27755 52.3095 8.11913C52.3095 8.9607 52.9917 9.64294 53.8333 9.64294H62.9762C63.8178 9.64294 64.5 8.9607 64.5 8.11913C64.5 7.27755 63.8178 6.59532 62.9762 6.59532Z" fill="#CFD4D7"/>
<path d="M47.7381 6.59532H17.2619C16.4203 6.59532 15.7381 7.27755 15.7381 8.11913C15.7381 8.9607 16.4203 9.64294 17.2619 9.64294H47.7381C48.5797 9.64294 49.2619 8.9607 49.2619 8.11913C49.2619 7.27755 48.5797 6.59532 47.7381 6.59532Z" fill="#F7B93E"/>
<path d="M11.1667 6.59533H2.02381C1.18223 6.59533 0.5 7.27756 0.5 8.11913C0.5 8.96071 1.18223 9.64294 2.02381 9.64294H11.1667C12.0082 9.64294 12.6905 8.96071 12.6905 8.11913C12.6905 7.27756 12.0082 6.59533 11.1667 6.59533Z" fill="#EA5E5E"/>
<path d="M62.9762 0.5H44.6905C43.8489 0.5 43.1667 1.18223 43.1667 2.02381C43.1667 2.86538 43.8489 3.54761 44.6905 3.54761H62.9762C63.8178 3.54761 64.5 2.86538 64.5 2.02381C64.5 1.18223 63.8178 0.5 62.9762 0.5Z" fill="#CFD4D7"/>
<path d="M38.5952 0.500051H2.02381C1.18223 0.500051 0.5 1.18228 0.5 2.02386C0.5 2.86543 1.18223 3.54766 2.02381 3.54766H38.5952C39.4368 3.54766 40.119 2.86543 40.119 2.02386C40.119 1.18228 39.4368 0.500051 38.5952 0.500051Z" fill="#56B3B4"/>
</g>
</svg>
