<svg width="32" height="31" viewBox="0 0 32 31" fill="none" xmlns="http://www.w3.org/2000/svg">
<path d="M0 16.2161C0 7.72205 6.95388 0.836426 15.5295 0.836426C24.1059 0.836426 31.0588 7.72205 31.0588 16.2161C31.0588 23.0091 26.6148 28.772 20.4478 30.808C19.6605 30.959 19.381 30.4794 19.381 30.0701C19.381 29.9021 19.383 29.6077 19.3856 29.2141C19.391 28.4208 19.399 27.2249 19.399 25.8495C19.399 24.4147 18.9027 23.4787 18.3457 23.0014C21.8037 22.6207 25.4366 21.32 25.4366 15.4129C25.4366 13.7338 24.8341 12.3618 23.8384 11.2848C23.9997 10.8974 24.5315 9.33317 23.6862 7.21472C23.6862 7.21472 22.384 6.80135 19.4198 8.79123C18.1788 8.45035 16.8492 8.27955 15.5295 8.27376C14.2097 8.27955 12.8812 8.45035 11.6425 8.79123C8.67485 6.80135 7.37079 7.21472 7.37079 7.21472C6.5276 9.33317 7.05912 10.8974 7.22037 11.2848C6.22689 12.3618 5.62023 13.7339 5.62023 15.4129C5.62023 21.306 9.24631 22.6247 12.6955 23.0137C12.2515 23.3978 11.8489 24.0761 11.7096 25.0703C10.8234 25.4631 8.57559 26.143 7.19053 23.7917C7.19053 23.7917 6.36939 22.3153 4.80993 22.2068C4.80993 22.2068 3.2948 22.1872 4.70372 23.1418C4.70372 23.1418 5.72156 23.6144 6.42797 25.3921C6.42797 25.3921 7.33961 28.1371 11.66 27.2067C11.6636 27.9096 11.6696 28.5905 11.6743 29.1232C11.6781 29.5644 11.6811 29.904 11.6811 30.0701C11.6811 30.4764 11.3961 30.9523 10.62 30.81C4.44966 28.7764 0 23.0114 0 16.2161Z" fill="#E7E7E7"/>
<path d="M5.55968 22.788C5.66935 22.8405 5.79003 22.8175 5.82389 22.7409C5.8627 22.664 5.79886 22.5585 5.68677 22.5082C5.57516 22.4552 5.45448 22.4773 5.42123 22.5562C5.38495 22.6331 5.44783 22.7377 5.55968 22.788Z" fill="#E7E7E7"/>
<path d="M6.26742 23.3469C6.365 23.4547 6.50877 23.4864 6.58229 23.4181C6.65919 23.3492 6.63948 23.2064 6.53864 23.0976C6.43755 22.9899 6.29813 22.958 6.22231 23.0262C6.14771 23.0955 6.16657 23.2393 6.26742 23.3469Z" fill="#E7E7E7"/>
<path d="M6.7581 24.1515C6.85351 24.2887 7.00804 24.3503 7.1026 24.2846C7.19921 24.2173 7.19909 24.0528 7.10478 23.9133C7.00804 23.7772 6.85593 23.7179 6.76016 23.7838C6.66367 23.8498 6.66367 24.0144 6.7581 24.1515Z" fill="#E7E7E7"/>
<path d="M7.58615 25.2291C7.71796 25.3564 7.89788 25.3813 7.98241 25.2882C8.07249 25.1959 8.03174 25.018 7.89788 24.8939C7.76511 24.7677 7.5841 24.7414 7.49861 24.8348C7.41385 24.9281 7.45145 25.1047 7.58615 25.2291Z" fill="#E7E7E7"/>
<path d="M8.7344 25.7514C8.909 25.8027 9.0824 25.7478 9.11952 25.627C9.1558 25.504 9.04153 25.3635 8.86741 25.3109C8.69147 25.256 8.51735 25.3132 8.48107 25.4348C8.44589 25.5569 8.56003 25.6985 8.7344 25.7514Z" fill="#E7E7E7"/>
<path d="M10.0868 26.0058C10.2701 26.0035 10.4182 25.8979 10.4138 25.7706C10.4138 25.6442 10.2637 25.5419 10.0803 25.5455C9.89606 25.5486 9.75132 25.6531 9.75132 25.7816C9.75326 25.9068 9.90235 26.0098 10.0868 26.0058Z" fill="#E7E7E7"/>
<path d="M11.3977 26.0075C11.5797 25.9736 11.7072 25.846 11.6852 25.7219C11.662 25.5956 11.4988 25.521 11.3165 25.5527C11.1379 25.5857 11.008 25.7132 11.0303 25.8405C11.0531 25.9635 11.2188 26.0401 11.3977 26.0075Z" fill="#E7E7E7"/>
</svg>
