<svg width="74" height="12" viewBox="0 0 74 12" fill="none" xmlns="http://www.w3.org/2000/svg">
<path d="M71.1667 6.1637C71.1667 4.69094 69.9728 3.49703 68.5 3.49703C67.0272 3.49703 65.8333 4.69094 65.8333 6.1637C65.8333 7.63646 67.0272 8.83036 68.5 8.83036C69.9728 8.83036 71.1667 7.63646 71.1667 6.1637ZM8.16667 6.1637C8.16667 4.69094 6.97276 3.49703 5.5 3.49703C4.02724 3.49703 2.83334 4.69094 2.83334 6.1637C2.83334 7.63646 4.02724 8.83036 5.5 8.83036C6.97276 8.83036 8.16667 7.63646 8.16667 6.1637ZM68.5 5.6637L66.5312 5.6637V6.6637L68.5 6.6637V5.6637ZM62.5938 5.6637L58.6562 5.6637V6.6637L62.5938 6.6637V5.6637ZM54.7188 5.6637L50.7812 5.6637V6.6637L54.7188 6.6637V5.6637ZM46.8438 5.6637L42.9062 5.6637V6.6637L46.8438 6.6637V5.6637ZM38.9688 5.6637L35.0312 5.6637V6.6637L38.9688 6.6637V5.6637ZM31.0938 5.6637L27.1562 5.6637V6.6637L31.0938 6.6637V5.6637ZM23.2188 5.6637L19.2812 5.6637V6.6637L23.2188 6.6637V5.6637ZM15.3438 5.6637L11.4062 5.6637V6.6637L15.3438 6.6637V5.6637ZM7.46875 5.6637L5.5 5.6637V6.6637L7.46875 6.6637V5.6637ZM73.8333 6.1637C73.8333 3.21818 71.4455 0.830363 68.5 0.830363C65.5545 0.830363 63.1667 3.21818 63.1667 6.1637C63.1667 9.10922 65.5545 11.497 68.5 11.497C71.4455 11.497 73.8333 9.10922 73.8333 6.1637ZM10.8333 6.1637C10.8333 3.21818 8.44552 0.830363 5.5 0.830363C2.55448 0.830363 0.166664 3.21818 0.166664 6.1637C0.166664 9.10922 2.55448 11.497 5.5 11.497C8.44552 11.497 10.8333 9.10922 10.8333 6.1637ZM68.5 5.1637L66.5312 5.1637V7.1637L68.5 7.1637V5.1637ZM62.5938 5.1637L58.6562 5.1637V7.1637L62.5938 7.1637V5.1637ZM54.7188 5.1637L50.7812 5.1637V7.1637L54.7188 7.1637V5.1637ZM46.8438 5.1637L42.9062 5.1637V7.1637L46.8438 7.1637V5.1637ZM38.9688 5.1637L35.0312 5.1637L35.0313 7.1637L38.9688 7.1637V5.1637ZM31.0937 5.1637L27.1562 5.1637L27.1563 7.1637L31.0938 7.1637L31.0937 5.1637ZM23.2187 5.1637L19.2812 5.1637L19.2813 7.1637L23.2188 7.1637L23.2187 5.1637ZM15.3437 5.1637L11.4062 5.1637L11.4063 7.1637L15.3438 7.1637L15.3437 5.1637ZM7.46875 5.1637L5.5 5.1637L5.5 7.1637L7.46875 7.1637L7.46875 5.1637Z" fill="#9072A7"/>
</svg>
