<svg width="65" height="63" viewBox="0 0 65 63" fill="none" xmlns="http://www.w3.org/2000/svg">
<path fill-rule="evenodd" clip-rule="evenodd" d="M32.9345 62.8349C39.936 37.0162 39.7334 36.9009 44.7921 18.4955L46.0078 19.22C46.6697 19.6123 47.21 19.2892 47.21 18.5048V9.73009C48.5518 4.88014 49.6054 1.13308 49.9116 0.00480929H55.3935L64.5 8.70795L58.5205 14.0378L63.0457 19.0816L33.2339 62.8349C33.0876 63.0818 32.885 63.0265 32.93 62.8349H32.9345Z" fill="#DCDAE7"/>
<path fill-rule="evenodd" clip-rule="evenodd" d="M36.1921 7.1925C36.4623 7.1925 36.6807 7.34478 36.6807 7.53859V12.0378C36.6807 12.2224 36.4781 12.3793 36.2079 12.3793H28.8461C28.576 12.3793 28.3509 12.2247 28.3509 12.0332V7.53398C28.3509 7.34478 28.576 7.1925 28.8461 7.1925H36.2079H36.1921ZM45.2784 2.20872L37.1782 7.03099C37.2728 7.18096 37.3291 7.35401 37.3291 7.53859V12.0378C37.3291 12.2686 37.239 12.4762 37.0814 12.6493L45.2536 17.5177C45.7939 17.8522 46.2667 17.58 46.2667 16.9178V2.81554C46.2667 2.15104 45.7939 1.87878 45.2536 2.21103L45.2784 2.20872ZM27.689 12.0378V7.53859C27.689 7.35401 27.7453 7.18096 27.8376 7.03099L19.7374 2.20872C19.1813 1.87878 18.7243 2.15104 18.7243 2.81324V16.9109C18.7243 17.58 19.1791 17.8338 19.7374 17.5108L27.9209 12.6423C27.7745 12.4578 27.6867 12.2501 27.6867 12.0194L27.689 12.0378Z" fill="#DCDAE7"/>
<path fill-rule="evenodd" clip-rule="evenodd" d="M31.7616 62.8348H32.0633C25.0617 37.0161 25.2643 36.9007 20.2079 18.4953L18.9922 19.2198C18.3303 19.6121 17.7877 19.289 17.7877 18.5046V9.72989C16.4392 4.87764 15.3811 1.13058 15.0659 0H9.59526L0.5 8.70545L6.47721 14.0353L1.95209 19.0791L31.7593 62.8255L31.7616 62.8348Z" fill="#DCDAE7"/>
<path d="M32.2772 21.7697C33.4981 21.7697 34.4879 20.7491 34.4879 19.4901C34.4879 18.2311 33.4981 17.2105 32.2772 17.2105C31.0562 17.2105 30.0664 18.2311 30.0664 19.4901C30.0664 20.7491 31.0562 21.7697 32.2772 21.7697Z" fill="#DCDAE7"/>
<path d="M32.2772 35.3296C33.4981 35.3296 34.4879 34.309 34.4879 33.05C34.4879 31.791 33.4981 30.7704 32.2772 30.7704C31.0562 30.7704 30.0664 31.791 30.0664 33.05C30.0664 34.309 31.0562 35.3296 32.2772 35.3296Z" fill="#DCDAE7"/>
<path d="M32.2772 48.8894C33.4981 48.8894 34.4879 47.8688 34.4879 46.6098C34.4879 45.3508 33.4981 44.3302 32.2772 44.3302C31.0562 44.3302 30.0664 45.3508 30.0664 46.6098C30.0664 47.8688 31.0562 48.8894 32.2772 48.8894Z" fill="#DCDAE7"/>
</svg>
