<svg width="327" height="125" viewBox="0 0 327 125" fill="none" xmlns="http://www.w3.org/2000/svg">
<path d="M5.5 61.7485L5.5 61.2485L5 61.7485L5.5 61.7485ZM321.5 61.7444L321.5 62.2444L322 61.7444L321.5 61.7444ZM324.167 6.00002C324.167 4.52725 322.973 3.33335 321.5 3.33335C320.027 3.33335 318.833 4.52725 318.833 6.00002C318.833 7.47278 320.027 8.66668 321.5 8.66668C322.973 8.66668 324.167 7.47278 324.167 6.00002ZM8.16666 119C8.16666 117.527 6.97275 116.333 5.5 116.333C4.02725 116.333 2.83334 117.527 2.83334 119C2.83334 120.473 4.02725 121.667 5.5 121.667C6.97275 121.667 8.16666 120.473 8.16666 119ZM321 6.00002L321 7.99088L322 7.99088L322 6.00002L321 6.00002ZM321 11.9726L321 15.9544L322 15.9544L322 11.9726L321 11.9726ZM321 19.9361L321 23.9179L322 23.9179L322 19.9361L321 19.9361ZM321 27.8996L321 31.8813L322 31.8813L322 27.8996L321 27.8996ZM321 35.8631L321 39.8448L322 39.8448L322 35.8631L321 35.8631ZM321 43.8266L321 47.8083L322 47.8083L322 43.8266L321 43.8266ZM321 51.79L321 55.7718L322 55.7718L322 51.79L321 51.79ZM321 59.7535L321 61.7444L322 61.7444L322 59.7535L321 59.7535ZM321.5 61.2444L319.525 61.2444L319.525 62.2444L321.5 62.2444L321.5 61.2444ZM315.575 61.2445L311.625 61.2445L311.625 62.2445L315.575 62.2445L315.575 61.2445ZM307.675 61.2446L303.725 61.2446L303.725 62.2446L307.675 62.2446L307.675 61.2446ZM299.775 61.2447L295.825 61.2447L295.825 62.2447L299.775 62.2447L299.775 61.2447ZM291.875 61.2448L287.925 61.2448L287.925 62.2448L291.875 62.2448L291.875 61.2448ZM283.975 61.2449L280.025 61.2449L280.025 62.2449L283.975 62.2449L283.975 61.2449ZM276.075 61.245L272.125 61.245L272.125 62.245L276.075 62.245L276.075 61.245ZM268.175 61.2451L264.225 61.2451L264.225 62.2451L268.175 62.2451L268.175 61.2451ZM260.275 61.2452L256.325 61.2452L256.325 62.2452L260.275 62.2452L260.275 61.2452ZM252.375 61.2453L248.425 61.2454L248.425 62.2454L252.375 62.2453L252.375 61.2453ZM244.475 61.2454L240.525 61.2455L240.525 62.2455L244.475 62.2454L244.475 61.2454ZM236.575 61.2455L232.625 61.2456L232.625 62.2456L236.575 62.2455L236.575 61.2455ZM228.675 61.2456L224.725 61.2457L224.725 62.2457L228.675 62.2456L228.675 61.2456ZM220.775 61.2457L216.825 61.2458L216.825 62.2458L220.775 62.2457L220.775 61.2457ZM212.875 61.2458L208.925 61.2459L208.925 62.2459L212.875 62.2458L212.875 61.2458ZM204.975 61.2459L201.025 61.246L201.025 62.246L204.975 62.2459L204.975 61.2459ZM197.075 61.246L193.125 61.2461L193.125 62.2461L197.075 62.246L197.075 61.246ZM189.175 61.2461L185.225 61.2462L185.225 62.2462L189.175 62.2461L189.175 61.2461ZM181.275 61.2462L177.325 61.2463L177.325 62.2463L181.275 62.2462L181.275 61.2462ZM173.375 61.2463L169.425 61.2464L169.425 62.2464L173.375 62.2463L173.375 61.2463ZM165.475 61.2464L161.525 61.2465L161.525 62.2465L165.475 62.2464L165.475 61.2464ZM157.575 61.2465L153.625 61.2466L153.625 62.2466L157.575 62.2465L157.575 61.2465ZM149.675 61.2466L145.725 61.2467L145.725 62.2467L149.675 62.2466L149.675 61.2466ZM141.775 61.2467L137.825 61.2468L137.825 62.2468L141.775 62.2467L141.775 61.2467ZM133.875 61.2469L129.925 61.2469L129.925 62.2469L133.875 62.2469L133.875 61.2469ZM125.975 61.247L122.025 61.247L122.025 62.247L125.975 62.247L125.975 61.247ZM118.075 61.2471L114.125 61.2471L114.125 62.2471L118.075 62.2471L118.075 61.2471ZM110.175 61.2472L106.225 61.2472L106.225 62.2472L110.175 62.2472L110.175 61.2472ZM102.275 61.2473L98.3251 61.2473L98.3251 62.2473L102.275 62.2473L102.275 61.2473ZM94.3751 61.2474L90.4251 61.2474L90.4251 62.2474L94.3751 62.2474L94.3751 61.2474ZM86.4751 61.2475L82.5251 61.2475L82.5251 62.2475L86.4751 62.2475L86.4751 61.2475ZM78.5751 61.2476L74.6251 61.2476L74.6251 62.2476L78.5751 62.2476L78.5751 61.2476ZM70.6751 61.2477L66.7251 61.2477L66.7251 62.2477L70.6751 62.2477L70.6751 61.2477ZM62.7751 61.2478L58.8251 61.2478L58.8251 62.2478L62.7751 62.2478L62.7751 61.2478ZM54.8751 61.2479L50.9251 61.2479L50.9251 62.2479L54.8751 62.2479L54.8751 61.2479ZM46.9751 61.248L43.0251 61.248L43.0251 62.248L46.9751 62.248L46.9751 61.248ZM39.0751 61.2481L35.1251 61.2482L35.1251 62.2482L39.0751 62.2481L39.0751 61.2481ZM31.1751 61.2482L27.225 61.2483L27.225 62.2483L31.1751 62.2482L31.1751 61.2482ZM23.275 61.2483L19.325 61.2484L19.325 62.2484L23.275 62.2483L23.275 61.2483ZM15.375 61.2484L11.425 61.2485L11.425 62.2485L15.375 62.2484L15.375 61.2484ZM7.47498 61.2485L5.5 61.2485L5.5 62.2485L7.47498 62.2485L7.47498 61.2485ZM5 61.7485L5 63.7932L6 63.7932L6 61.7485L5 61.7485ZM5 67.8826L5 71.972L6 71.972L6 67.8826L5 67.8826ZM5 76.0614L5 80.1508L6 80.1508L6 76.0614L5 76.0614ZM5 84.2402L5 88.3296L6 88.3296L6 84.2402L5 84.2402ZM5 92.419L5 96.5083L6 96.5083L6 92.419L5 92.419ZM5 100.598L5 104.687L6 104.687L6 100.598L5 100.598ZM5 108.777L5 112.866L6 112.866L6 108.777L5 108.777ZM5 116.955L5 119L6 119L6 116.955L5 116.955ZM5.5 61.7485L5.5 60.7485L4.5 61.7485L5.5 61.7485ZM321.5 61.7444L321.5 62.7444L322.5 61.7444L321.5 61.7444ZM326.833 6.00002C326.833 3.0545 324.446 0.66668 321.5 0.666679C318.554 0.666679 316.167 3.0545 316.167 6.00002C316.167 8.94553 318.554 11.3334 321.5 11.3334C324.446 11.3334 326.833 8.94553 326.833 6.00002ZM10.8333 119C10.8333 116.054 8.44553 113.667 5.5 113.667C2.55447 113.667 0.166657 116.054 0.166656 119C0.166656 121.946 2.55447 124.333 5.5 124.333C8.44553 124.333 10.8333 121.946 10.8333 119ZM320.5 6.00002L320.5 7.99088L322.5 7.99088L322.5 6.00002L320.5 6.00002ZM320.5 11.9726L320.5 15.9544L322.5 15.9544L322.5 11.9726L320.5 11.9726ZM320.5 19.9361L320.5 23.9179L322.5 23.9179L322.5 19.9361L320.5 19.9361ZM320.5 27.8996L320.5 31.8813L322.5 31.8813L322.5 27.8996L320.5 27.8996ZM320.5 35.8631L320.5 39.8448L322.5 39.8448L322.5 35.8631L320.5 35.8631ZM320.5 43.8266L320.5 47.8083L322.5 47.8083L322.5 43.8266L320.5 43.8266ZM320.5 51.79L320.5 55.7718L322.5 55.7718L322.5 51.79L320.5 51.79ZM320.5 59.7535L320.5 61.7444L322.5 61.7444L322.5 59.7535L320.5 59.7535ZM321.5 60.7444L319.525 60.7444L319.525 62.7444L321.5 62.7444L321.5 60.7444ZM315.575 60.7445L311.625 60.7445L311.625 62.7445L315.575 62.7445L315.575 60.7445ZM307.675 60.7446L303.725 60.7446L303.725 62.7446L307.675 62.7446L307.675 60.7446ZM299.775 60.7447L295.825 60.7447L295.825 62.7447L299.775 62.7447L299.775 60.7447ZM291.875 60.7448L287.925 60.7448L287.925 62.7448L291.875 62.7448L291.875 60.7448ZM283.975 60.7449L280.025 60.7449L280.025 62.7449L283.975 62.7449L283.975 60.7449ZM276.075 60.745L272.125 60.745L272.125 62.745L276.075 62.745L276.075 60.745ZM268.175 60.7451L264.225 60.7451L264.225 62.7451L268.175 62.7451L268.175 60.7451ZM260.275 60.7452L256.325 60.7452L256.325 62.7452L260.275 62.7452L260.275 60.7452ZM252.375 60.7453L248.425 60.7454L248.425 62.7454L252.375 62.7453L252.375 60.7453ZM244.475 60.7454L240.525 60.7455L240.525 62.7455L244.475 62.7454L244.475 60.7454ZM236.575 60.7455L232.625 60.7456L232.625 62.7456L236.575 62.7455L236.575 60.7455ZM228.675 60.7456L224.725 60.7457L224.725 62.7457L228.675 62.7456L228.675 60.7456ZM220.775 60.7457L216.825 60.7458L216.825 62.7458L220.775 62.7457L220.775 60.7457ZM212.875 60.7458L208.925 60.7459L208.925 62.7459L212.875 62.7458L212.875 60.7458ZM204.975 60.7459L201.025 60.746L201.025 62.746L204.975 62.7459L204.975 60.7459ZM197.075 60.746L193.125 60.7461L193.125 62.7461L197.075 62.746L197.075 60.746ZM189.175 60.7461L185.225 60.7462L185.225 62.7462L189.175 62.7461L189.175 60.7461ZM181.275 60.7462L177.325 60.7463L177.325 62.7463L181.275 62.7462L181.275 60.7462ZM173.375 60.7463L169.425 60.7464L169.425 62.7464L173.375 62.7463L173.375 60.7463ZM165.475 60.7464L161.525 60.7465L161.525 62.7465L165.475 62.7464L165.475 60.7464ZM157.575 60.7465L153.625 60.7466L153.625 62.7466L157.575 62.7465L157.575 60.7465ZM149.675 60.7466L145.725 60.7467L145.725 62.7467L149.675 62.7466L149.675 60.7466ZM141.775 60.7467L137.825 60.7468L137.825 62.7468L141.775 62.7467L141.775 60.7467ZM133.875 60.7469L129.925 60.7469L129.925 62.7469L133.875 62.7469L133.875 60.7469ZM125.975 60.747L122.025 60.747L122.025 62.747L125.975 62.747L125.975 60.747ZM118.075 60.7471L114.125 60.7471L114.125 62.7471L118.075 62.7471L118.075 60.7471ZM110.175 60.7472L106.225 60.7472L106.225 62.7472L110.175 62.7472L110.175 60.7472ZM102.275 60.7473L98.3251 60.7473L98.3251 62.7473L102.275 62.7473L102.275 60.7473ZM94.3751 60.7474L90.4251 60.7474L90.4251 62.7474L94.3751 62.7474L94.3751 60.7474ZM86.4751 60.7475L82.5251 60.7475L82.5251 62.7475L86.4751 62.7475L86.4751 60.7475ZM78.5751 60.7476L74.6251 60.7476L74.6252 62.7476L78.5751 62.7476L78.5751 60.7476ZM70.6751 60.7477L66.7251 60.7477L66.7252 62.7477L70.6752 62.7477L70.6751 60.7477ZM62.7751 60.7478L58.8251 60.7478L58.8251 62.7478L62.7751 62.7478L62.7751 60.7478ZM54.8751 60.7479L50.9251 60.7479L50.9251 62.7479L54.8751 62.7479L54.8751 60.7479ZM46.9751 60.748L43.0251 60.748L43.0251 62.748L46.9751 62.748L46.9751 60.748ZM39.0751 60.7481L35.125 60.7482L35.1251 62.7482L39.0751 62.7481L39.0751 60.7481ZM31.175 60.7482L27.225 60.7483L27.2251 62.7483L31.1751 62.7482L31.175 60.7482ZM23.275 60.7483L19.325 60.7484L19.325 62.7484L23.2751 62.7483L23.275 60.7483ZM15.375 60.7484L11.425 60.7485L11.425 62.7485L15.375 62.7484L15.375 60.7484ZM7.47495 60.7485L5.5 60.7485L5.5 62.7485L7.47498 62.7485L7.47495 60.7485ZM4.5 61.7485L4.5 63.7932L6.5 63.7932L6.5 61.7485L4.5 61.7485ZM4.5 67.8826L4.5 71.972L6.5 71.972L6.5 67.8826L4.5 67.8826ZM4.5 76.0614L4.5 80.1508L6.5 80.1508L6.5 76.0614L4.5 76.0614ZM4.5 84.2402L4.5 88.3296L6.5 88.3296L6.5 84.2402L4.5 84.2402ZM4.5 92.419L4.5 96.5083L6.5 96.5083L6.5 92.419L4.5 92.419ZM4.5 100.598L4.5 104.687L6.5 104.687L6.5 100.598L4.5 100.598ZM4.5 108.777L4.5 112.866L6.5 112.866L6.5 108.777L4.5 108.777ZM4.5 116.955L4.5 119L6.5 119L6.5 116.955L4.5 116.955Z" fill="url(#paint0_linear_1_384)"/>
<defs>
<linearGradient id="paint0_linear_1_384" x1="1.68061e+06" y1="110.446" x2="1.68061e+06" y2="-159.883" gradientUnits="userSpaceOnUse">
<stop offset="0.6875" stop-color="#9072A7"/>
<stop offset="1" stop-color="#B9DFEB"/>
</linearGradient>
</defs>
</svg>
