<svg width="11" height="125" viewBox="0 0 11 125" fill="none" xmlns="http://www.w3.org/2000/svg">
<path d="M5.49999 3.33333C4.02724 3.33333 2.83333 4.52724 2.83333 6C2.83333 7.47276 4.02724 8.66667 5.5 8.66667C6.97275 8.66667 8.16666 7.47276 8.16666 6C8.16666 4.52724 6.97275 3.33333 5.49999 3.33333ZM5.5 116.333C4.02725 116.333 2.83334 117.527 2.83334 119C2.83334 120.473 4.02725 121.667 5.50001 121.667C6.97276 121.667 8.16667 120.473 8.16667 119C8.16667 117.527 6.97276 116.333 5.5 116.333ZM5 6L5 8.01786L6 8.01786L6 6L5 6ZM5 12.0536L5 16.0893L6 16.0893L6 12.0536L5 12.0536ZM5 20.125L5 24.1607L6 24.1607L6 20.125L5 20.125ZM5 28.1964L5 32.2321L6 32.2321L6 28.1964L5 28.1964ZM5 36.2679L5 40.3036L6 40.3036L6 36.2679L5 36.2679ZM5 44.3393L5 48.375L6 48.375L6 44.3393L5 44.3393ZM5 52.4107L5 56.4464L6 56.4464L6 52.4107L5 52.4107ZM5 60.4821L5 64.5178L6 64.5178L6 60.4821L5 60.4821ZM5 68.5536L5 72.5893L6 72.5893L6 68.5536L5 68.5536ZM5 76.625L5 80.6607L6 80.6607L6 76.625L5 76.625ZM5 84.6964L5 88.7321L6 88.7321L6 84.6964L5 84.6964ZM5 92.7678L5 96.8036L6 96.8036L6 92.7678L5 92.7678ZM5 100.839L5 104.875L6 104.875L6 100.839L5 100.839ZM5 108.911L5 112.946L6 112.946L6 108.911L5 108.911ZM5 116.982L5 119L6 119L6 116.982L5 116.982ZM5.49999 0.666667C2.55448 0.666667 0.166662 3.05448 0.166662 6C0.166662 8.94552 2.55448 11.3333 5.5 11.3333C8.44551 11.3333 10.8333 8.94552 10.8333 6C10.8333 3.05448 8.44551 0.666666 5.49999 0.666667ZM5.5 113.667C2.55449 113.667 0.166671 116.054 0.166671 119C0.166672 121.946 2.55449 124.333 5.50001 124.333C8.44552 124.333 10.8333 121.946 10.8333 119C10.8333 116.054 8.44552 113.667 5.5 113.667ZM4.5 6L4.5 8.01786L6.5 8.01786L6.5 6L4.5 6ZM4.5 12.0536L4.5 16.0893L6.5 16.0893L6.5 12.0536L4.5 12.0536ZM4.5 20.125L4.5 24.1607L6.5 24.1607L6.5 20.125L4.5 20.125ZM4.5 28.1964L4.5 32.2321L6.5 32.2321L6.5 28.1964L4.5 28.1964ZM4.5 36.2679L4.5 40.3036L6.5 40.3036L6.5 36.2679L4.5 36.2679ZM4.5 44.3393L4.5 48.375L6.5 48.375L6.5 44.3393L4.5 44.3393ZM4.5 52.4107L4.5 56.4464L6.5 56.4464L6.5 52.4107L4.5 52.4107ZM4.5 60.4821L4.5 64.5178L6.5 64.5178L6.5 60.4821L4.5 60.4821ZM4.5 68.5536L4.5 72.5893L6.5 72.5893L6.5 68.5536L4.5 68.5536ZM4.5 76.625L4.5 80.6607L6.5 80.6607L6.5 76.625L4.5 76.625ZM4.5 84.6964L4.5 88.7321L6.5 88.7321L6.5 84.6964L4.5 84.6964ZM4.5 92.7678L4.5 96.8036L6.5 96.8036L6.5 92.7678L4.5 92.7678ZM4.5 100.839L4.5 104.875L6.5 104.875L6.5 100.839L4.5 100.839ZM4.5 108.911L4.5 112.946L6.5 112.946L6.5 108.911L4.5 108.911ZM4.5 116.982L4.5 119L6.5 119L6.5 116.982L4.5 116.982Z" fill="url(#paint0_linear_1_383)"/>
<defs>
<linearGradient id="paint0_linear_1_383" x1="-6.79111" y1="24.415" x2="-294.774" y2="251.209" gradientUnits="userSpaceOnUse">
<stop offset="0.6875" stop-color="#9072A7"/>
<stop offset="1" stop-color="#B9DFEB"/>
</linearGradient>
</defs>
</svg>
