<svg width="40" height="40" fill="none" xmlns="http://www.w3.org/2000/svg"><path fill-rule="evenodd" clip-rule="evenodd" d="M36.667 20c0 9.2-7.484 16.667-16.667 16.667l-.466-.007c-8.985-.247-16.2-7.616-16.2-16.66C3.334 10.817 10.8 3.333 20 3.333c9.183 0 16.667 7.484 16.667 16.667zM16.7 13.333c-.483.5-.483 1.284.017 1.767l4.917 4.9-4.917 4.9c-.5.483-.5 1.283-.017 1.767.5.5 1.284.5 1.767 0l5.817-5.784a1.249 1.249 0 000-1.766l-5.817-5.784a1.173 1.173 0 00-.867-.366c-.333 0-.65.116-.9.366z" fill="#141024"/></svg>