<svg width="40" height="40" fill="none" xmlns="http://www.w3.org/2000/svg"><path fill-rule="evenodd" clip-rule="evenodd" d="M3.333 20c0 9.2 7.483 16.667 16.667 16.667l.466-.007c8.985-.247 16.2-7.616 16.2-16.66C36.666 10.817 29.2 3.333 20 3.333 10.816 3.333 3.333 10.817 3.333 20zM23.3 13.333c.483.5.483 1.284-.017 1.767L18.366 20l4.917 4.9c.5.483.5 1.283.017 1.767-.5.5-1.284.5-1.767 0l-5.817-5.784a1.249 1.249 0 010-1.766l5.817-5.784c.233-.25.55-.366.867-.366.333 0 .65.116.9.366z" fill="#141024"/></svg>